<?xml version="1.0" encoding="UTF-8"?>
<svg width="20px" height="17px" viewBox="0 0 20 17" version="1.1" xmlns="http://www.w3.org/2000/svg" xmlns:xlink="http://www.w3.org/1999/xlink">
    <!-- Generator: sketchtool 52.2 (67145) - http://www.bohemiancoding.com/sketch -->
    <title>492B7F3A-769F-41C9-BE2E-E2B737C9E725</title>
    <desc>Created with sketchtool.</desc>
    <g id="Page-1" stroke="none" stroke-width="1" fill="none" fill-rule="evenodd">
        <g id="Главная2" transform="translate(-1426.000000, -124.000000)" fill="#A5A5A5" fill-rule="nonzero">
            <g id="Поиск" transform="translate(617.000000, 106.000000)">
                <g id="Карзина" transform="translate(809.000000, 18.000000)">
                    <g id="shopping-basket-button">
                        <path d="M14.8623853,6.23036649 L10.8256881,0.356020942 C10.6421659,0.178010471 10.3669725,0 10.0917431,0 C9.81651376,0 9.5412844,0.0890052356 9.35779817,0.356020942 L5.32110092,6.23036649 L0.917431193,6.23036649 C0.366972477,6.23036649 0,6.58638743 0,7.12041885 C0,7.20942408 0,7.29842932 0,7.38743455 L2.29357798,15.6649215 C2.47706422,16.3769634 3.21100917,17 4.03669725,17 L15.9633028,17 C16.7889908,17 17.5229358,16.4659686 17.706422,15.6649215 L20,7.38743455 C20,7.29842932 20,7.20942408 20,7.12041885 C20,6.58638743 19.6330275,6.23036649 19.0825688,6.23036649 L14.8623853,6.23036649 Z M7.33944954,6.23036649 L10.0917431,2.31413613 L12.8440367,6.23036649 L7.33944954,6.23036649 Z M10.0917431,13.3507853 C9.08256881,13.3507853 8.25688073,12.5497382 8.25688073,11.5706806 C8.25688073,10.591623 9.08256881,9.79057592 10.0917431,9.79057592 C11.1009174,9.79057592 11.9266055,10.591623 11.9266055,11.5706806 C11.9266055,12.5497382 11.1009174,13.3507853 10.0917431,13.3507853 Z" id="Shape"></path>
                    </g>
                </g>
            </g>
        </g>
    </g>
</svg>
