<?xml version="1.0" encoding="UTF-8"?>
<svg width="13px" height="18px" viewBox="0 0 13 18" version="1.1" xmlns="http://www.w3.org/2000/svg" xmlns:xlink="http://www.w3.org/1999/xlink">
    <!-- Generator: sketchtool 52.2 (67145) - http://www.bohemiancoding.com/sketch -->
    <title>9999D1F6-B702-4C26-9465-C5F351FC3E37</title>
    <desc>Created with sketchtool.</desc>
    <g id="Page-1" stroke="none" stroke-width="1" fill="none" fill-rule="evenodd">
        <g id="Корзина" transform="translate(-1285.000000, -281.000000)" fill="#EE3E3E" fill-rule="nonzero">
            <g transform="translate(579.000000, 165.000000)" id="1-товар">
                <g transform="translate(41.000000, 103.000000)">
                    <g id="delete-photo" transform="translate(665.000000, 13.000000)">
                        <path d="M1,17.610786 C1,17.8257489 1.17984188,18 1.40170175,18 L11.5982982,18 C11.8201581,18 12,17.8257489 12,17.610786 L12,5 L1,5 L1,17.610786 Z M8.75957237,7.14610644 L10.265954,7.14610644 L10.265954,15.6315356 L8.75957237,15.6315356 L8.75957237,7.14610644 Z M5.74680921,7.14610644 L7.25319079,7.14610644 L7.25319079,15.6315356 L5.74680921,15.6315356 L5.74680921,7.14610644 Z M2.73404605,7.14610644 L4.24042763,7.14610644 L4.24042763,15.6315356 L2.73404605,15.6315356 L2.73404605,7.14610644 Z" id="Shape"></path>
                        <path d="M9.83683795,1.77188932 L9.83683795,0.385566325 C9.83683795,0.172618044 9.65959906,0 9.44095031,0 L3.55904969,0 C3.34040094,0 3.16316205,0.172618044 3.16316205,0.385566325 L3.16316205,1.77188932 L3.16316205,2.01286828 L3.16316205,2.25384723 L0.395887641,2.25384723 C0.177238897,2.25384723 0,2.42646527 0,2.63941355 L0,3.61443368 C0,3.82736268 0.177238897,4 0.395887641,4 L1.07960539,4 L11.9203946,4 L12.6041124,4 C12.8227611,4 13,3.82736268 13,3.61443368 L13,2.63941355 C13,2.42646527 12.8227611,2.25384723 12.6041124,2.25384723 L9.83683795,2.25384723 L9.83683795,2.01286828 L9.83683795,1.77188932 Z M8.3522593,2.17457479 L4.6477407,2.17457479 L4.6477407,2.012849 L4.6477407,1.77187004 L4.6477407,1.44587372 L8.3522593,1.44587372 L8.3522593,1.77188932 L8.3522593,2.01286828 L8.3522593,2.17457479 Z" id="Shape"></path>
                    </g>
                </g>
            </g>
        </g>
    </g>
</svg>