<?xml version="1.0" encoding="UTF-8"?>
<svg width="30px" height="30px" viewBox="0 0 30 30" version="1.1" xmlns="http://www.w3.org/2000/svg" xmlns:xlink="http://www.w3.org/1999/xlink">
    <!-- Generator: sketchtool 52.2 (67145) - http://www.bohemiancoding.com/sketch -->
    <title>35A13E1D-024B-468A-BCEF-6716604109A2</title>
    <desc>Created with sketchtool.</desc>
    <g id="Page-1" stroke="none" stroke-width="1" fill="none" fill-rule="evenodd">
        <g id="Главная2" transform="translate(-557.000000, -2275.000000)">
            <g id="Футер" transform="translate(0.000000, 1943.000000)">
                <rect id="Rectangle" stroke="#E3E3E3" fill="#FFFFFF" x="0.5" y="0.5" width="1919" height="423"></rect>
                <g id="instagram-logo" transform="translate(557.000000, 332.000000)" fill="#BCBCBC">
                    <path d="M14.895,17.8776 C16.5384,17.8776 17.8782,16.5402 17.8782,14.8956 C17.8782,14.2464 17.6658,13.647 17.3142,13.1574 C16.7724,12.4062 15.8916,11.9136 14.8968,11.9136 C13.9014,11.9136 13.0212,12.4056 12.4782,13.1568 C12.1254,13.6464 11.9148,14.2458 11.9142,14.895 C11.9124,16.5396 13.251,17.8776 14.895,17.8776 Z" id="Path"></path>
                    <polygon id="Path" points="21.4068 11.2476 21.4068 8.748 21.4068 8.376 21.033 8.3772 18.5346 8.385 18.5442 11.2572"></polygon>
                    <path d="M14.8956,0 C6.6822,0 0,6.6822 0,14.8956 C0,23.1084 6.6822,29.7912 14.8956,29.7912 C23.1084,29.7912 29.7912,23.1084 29.7912,14.8956 C29.7912,6.6822 23.1096,0 14.8956,0 Z M23.367,13.1574 L23.367,20.0934 C23.367,21.9 21.8982,23.3682 20.0928,23.3682 L9.6984,23.3682 C7.8924,23.3682 6.4242,21.9 6.4242,20.0934 L6.4242,13.1574 L6.4242,9.699 C6.4242,7.893 7.8924,6.4248 9.6984,6.4248 L20.0922,6.4248 C21.8982,6.4248 23.367,7.893 23.367,9.699 L23.367,13.1574 Z" id="Shape" fill-rule="nonzero"></path>
                    <path d="M19.5294,14.8956 C19.5294,17.4498 17.451,19.5294 14.8956,19.5294 C12.3402,19.5294 10.2624,17.4498 10.2624,14.8956 C10.2624,14.2812 10.3848,13.6938 10.6032,13.1574 L8.0742,13.1574 L8.0742,20.0934 C8.0742,20.9898 8.802,21.7158 9.6978,21.7158 L20.0916,21.7158 C20.9862,21.7158 21.7152,20.9898 21.7152,20.0934 L21.7152,13.1574 L19.185,13.1574 C19.4052,13.6938 19.5294,14.2812 19.5294,14.8956 Z" id="Path"></path>
                </g>
            </g>
        </g>
    </g>
</svg>