<?xml version="1.0" encoding="UTF-8"?>
<svg width="12px" height="12px" viewBox="0 0 12 12" version="1.1" xmlns="http://www.w3.org/2000/svg" xmlns:xlink="http://www.w3.org/1999/xlink">
    <!-- Generator: sketchtool 52.2 (67145) - http://www.bohemiancoding.com/sketch -->
    <title>A8D667E6-908B-4652-A886-13DC619BEF58</title>
    <desc>Created with sketchtool.</desc>
    <g id="Page-1" stroke="none" stroke-width="1" fill="none" fill-rule="evenodd">
        <g id="Продукт" transform="translate(-1294.000000, -125.000000)" fill="#FFFFFF" fill-rule="nonzero">
            <g id="Поиск" transform="translate(617.000000, 106.000000)">
                <g id="Кнопка" transform="translate(662.000000, 13.000000)">
                    <g id="magnifying-glass-(1)" transform="translate(15.000000, 6.000000)">
                        <path d="M11.7106891,10.4078067 L9.24189076,7.93910924 C9.83684874,7.0802521 10.134479,6.12279832 10.134479,5.0672521 C10.134479,4.38108403 10.0012689,3.72484034 9.73484874,3.09867227 C9.46860504,2.47240336 9.10868067,1.93260504 8.65522689,1.47915126 C8.20177311,1.02569748 7.66205042,0.665773109 7.03590756,0.399504202 C6.40956303,0.133159664 5.75336975,0 5.06720168,0 C4.38108403,0 3.72484034,0.133159664 3.09867227,0.399504202 C2.47240336,0.665773109 1.93260504,1.02569748 1.47915126,1.47915126 C1.02564706,1.93260504 0.665773109,2.4725042 0.399478992,3.09867227 C0.133159664,3.72491597 0,4.38108403 0,5.0672521 C0,5.75336975 0.133159664,6.40938655 0.399478992,7.03573109 C0.665747899,7.66189916 1.02564706,8.20162185 1.47915126,8.65507563 C1.93260504,9.10868067 2.4725042,9.46845378 3.09867227,9.73487395 C3.72491597,10.0011681 4.38108403,10.1343025 5.06720168,10.1343025 C6.12297479,10.1343025 7.08027731,9.83664706 7.93918487,9.2417395 L10.4079832,11.7032773 C10.5807227,11.8855714 10.7963697,11.9767815 11.0557059,11.9767815 C11.3052101,11.9767815 11.5212605,11.8855966 11.7034538,11.7032773 C11.8857227,11.5210084 11.9769328,11.3050588 11.9769328,11.0555546 C11.9770084,10.8013866 11.8882437,10.5853613 11.7106891,10.4078067 Z M7.34528571,7.34508403 C6.71430252,7.97616807 5.955,8.29169748 5.06720168,8.29169748 C4.17955462,8.29169748 3.4202521,7.97609244 2.78921849,7.34508403 C2.15818487,6.71410084 1.84268067,5.95489916 1.84268067,5.06710084 C1.84268067,4.17945378 2.1582605,3.42002521 2.78921849,2.78911765 C3.42012605,2.15805882 4.17955462,1.84257983 5.06720168,1.84257983 C5.95489916,1.84257983 6.71420168,2.15818487 7.34528571,2.78911765 C7.97636975,3.42002521 8.29187395,4.17945378 8.29187395,5.06710084 C8.29187395,5.95489916 7.97626891,6.71410084 7.34528571,7.34508403 Z" id="Shape"></path>
                    </g>
                </g>
            </g>
        </g>
    </g>
</svg>