<?xml version="1.0" encoding="UTF-8"?>
<svg width="30px" height="30px" viewBox="0 0 30 30" version="1.1" xmlns="http://www.w3.org/2000/svg" xmlns:xlink="http://www.w3.org/1999/xlink">
    <!-- Generator: sketchtool 52.2 (67145) - http://www.bohemiancoding.com/sketch -->
    <title>4E110D19-8EF8-465F-87BC-2D6E19136CBD</title>
    <desc>Created with sketchtool.</desc>
    <g id="Page-1" stroke="none" stroke-width="1" fill="none" fill-rule="evenodd">
        <g id="Продукт" transform="translate(-617.000000, -2212.000000)">
            <g id="Футер" transform="translate(0.000000, 1880.000000)">
                <rect id="Rectangle" stroke="#E3E3E3" fill="#FFFFFF" x="0.5" y="0.5" width="1919" height="423"></rect>
                <g id="twitter-logo-button" transform="translate(617.000000, 332.000000)" fill="#BCBCBC">
                    <path d="M14.8956,0 C6.6822,0 0,6.6822 0,14.8956 C0,23.1084 6.6822,29.7912 14.8956,29.7912 C23.1084,29.7912 29.7912,23.1084 29.7912,14.8956 C29.7912,6.6822 23.1096,0 14.8956,0 Z M21.5406,11.4864 C21.5472,11.634 21.5508,11.7828 21.5508,11.9316 C21.5508,16.4622 18.1032,21.6846 11.7954,21.6846 C9.8592,21.6846 8.0568,21.1188 6.54,20.1456 C6.8082,20.1774 7.0812,20.1936 7.3578,20.1936 C8.9646,20.1936 10.4424,19.6452 11.616,18.726 C10.116,18.6984 8.8494,17.7072 8.4132,16.3446 C8.622,16.3842 8.8374,16.4064 9.0576,16.4064 C9.3702,16.4064 9.6738,16.3656 9.9612,16.287 C8.3928,15.9726 7.2114,14.5872 7.2114,12.9252 C7.2114,12.9108 7.2114,12.8958 7.212,12.882 C7.674,13.1382 8.2026,13.293 8.7642,13.3104 C7.845,12.6966 7.2396,11.6466 7.2396,10.4574 C7.2396,9.8286 7.4082,9.2394 7.7034,8.733 C9.3936,10.8078 11.9208,12.1722 14.7696,12.3162 C14.7108,12.0648 14.6814,11.8038 14.6814,11.5344 C14.6814,9.6414 16.2162,8.106 18.1092,8.106 C19.0956,8.106 19.9854,8.5224 20.6118,9.1884 C21.3936,9.0348 22.1256,8.7504 22.7898,8.3562 C22.5318,9.1572 21.99,9.8286 21.2802,10.2534 C21.9744,10.1706 22.6368,9.987 23.2494,9.714 C22.7922,10.4004 22.2108,11.0046 21.5406,11.4864 Z" id="Shape"></path>
                </g>
            </g>
        </g>
    </g>
</svg>